<svg width="37" height="37" viewBox="0 0 37 37" fill="none" xmlns="http://www.w3.org/2000/svg">
<path d="M21.0781 0.25C25.2028 0.25 29.0822 1.72526 32.0039 4.39941C34.9601 7.10493 36.583 10.7069 36.583 14.542C36.583 15.1753 36.527 15.8988 36.4258 16.5771V16.5781C36.3287 17.2273 35.7243 17.6752 35.0752 17.5781C34.4258 17.4812 33.9773 16.8759 34.0742 16.2266C34.1572 15.67 34.2051 15.0571 34.2051 14.542C34.2051 7.94968 28.2929 2.62793 21.0781 2.62793C13.8635 2.62804 7.95117 7.94975 7.95117 14.542C7.95142 20.3175 13.2423 26.4559 21.0781 26.4561C23.0247 26.4561 24.9008 26.0773 26.6523 25.3301C26.9548 25.201 27.2977 25.2024 27.5986 25.335L32.6318 27.5537L33.1953 27.8018L32.9639 27.2314L31.2695 23.04C31.0235 22.4313 31.318 21.7383 31.9268 21.4922C32.5352 21.2462 33.2275 21.54 33.4736 22.1484L36.4961 29.625C36.6774 30.0735 36.569 30.587 36.2217 30.9238C35.9953 31.1433 35.6967 31.2597 35.3936 31.2598C35.232 31.2597 35.0693 31.2261 34.915 31.1582L27.1953 27.7559L27.1016 27.7139L27.0059 27.751C26.0515 28.1158 25.0677 28.3886 24.0615 28.5693L23.9512 28.5898L23.8926 28.6855C22.8687 30.3695 21.4065 31.7974 19.627 32.8379C17.6404 33.9992 15.3445 34.6208 12.9814 34.6387H12.9736L12.9658 34.6396C12.9275 34.6425 12.9018 34.6445 12.877 34.6445C11.2432 34.6445 9.66163 34.3624 8.16602 33.8057L8.07031 33.7695L7.97754 33.8105L1.91797 36.4824C1.76404 36.5502 1.60111 36.5829 1.43945 36.583C1.13635 36.583 0.837671 36.4675 0.611328 36.248C0.263998 35.9114 0.155765 35.3977 0.336914 34.9492V34.9482L2.43848 29.75L2.49023 29.6211L2.4082 29.5088C0.992598 27.5813 0.25 25.344 0.25 22.9863C0.250059 19.2146 2.20571 15.7056 5.51855 13.5117L5.61914 13.4453L5.62988 13.3262C5.93556 9.95116 7.5106 6.81736 10.1523 4.39941C13.0741 1.72534 16.9535 0.250053 21.0781 0.25ZM5.3623 16.6777C3.62524 18.3733 2.62798 20.6152 2.62793 22.9863C2.62793 25.0573 3.36692 27.0165 4.75879 28.6494C5.04599 28.9865 5.12203 29.4556 4.95605 29.8662L3.86914 32.5547L3.63867 33.126L4.20117 32.877L7.57129 31.3916C7.87216 31.259 8.21435 31.2577 8.5166 31.3867H8.51758C9.86932 31.9634 11.3161 32.2579 12.8174 32.2656V32.2666L12.8291 32.2656C12.8773 32.2637 12.8593 32.2627 12.877 32.2627C15.775 32.2627 18.5171 31.1316 20.4365 29.2422L20.8438 28.8408L20.2725 28.8145C16.345 28.6298 12.712 27.0969 9.9668 24.4551C7.76029 22.3315 6.30024 19.63 5.7832 16.8115L5.69824 16.3496L5.3623 16.6777Z" fill="#020202" stroke="#F5FAFF" stroke-width="0.5"/>
<path d="M21.0067 16.0425C21.8013 16.0425 22.4455 15.3983 22.4455 14.6037C22.4455 13.8091 21.8013 13.1649 21.0067 13.1649C20.212 13.1649 19.5679 13.8091 19.5679 14.6037C19.5679 15.3983 20.212 16.0425 21.0067 16.0425Z" fill="#020202"/>
<path d="M26.7635 16.0425C27.5581 16.0425 28.2023 15.3983 28.2023 14.6037C28.2023 13.8091 27.5581 13.1649 26.7635 13.1649C25.9689 13.1649 25.3247 13.8091 25.3247 14.6037C25.3247 15.3983 25.9689 16.0425 26.7635 16.0425Z" fill="#020202"/>
<path d="M15.2518 16.0425C16.0464 16.0425 16.6906 15.3983 16.6906 14.6037C16.6906 13.8091 16.0464 13.1649 15.2518 13.1649C14.4572 13.1649 13.813 13.8091 13.813 14.6037C13.813 15.3983 14.4572 16.0425 15.2518 16.0425Z" fill="#020202"/>
</svg>
