<svg width="69" height="69" viewBox="0 0 69 69" fill="none" xmlns="http://www.w3.org/2000/svg">
<path d="M34.084 0.25C52.7403 0.250161 67.917 15.4277 67.917 34.084C67.9168 52.7402 52.7402 67.9168 34.084 67.917C15.4277 67.917 0.250161 52.7403 0.25 34.084C0.25 15.4276 15.4276 0.25 34.084 0.25ZM34.084 4.01074C17.5006 4.01074 4.01074 17.5006 4.01074 34.084C4.0109 50.6672 17.5007 64.1572 34.084 64.1572C50.6671 64.1571 64.1571 50.6671 64.1572 34.084C64.1572 17.5007 50.6672 4.0109 34.084 4.01074Z" fill="#64D370" stroke="#E5E5E5" stroke-width="0.5"/>
<path d="M34.0837 13.7413C35.1214 13.7413 35.9644 14.5835 35.9646 15.6212V34.7237L50.325 49.084C51.0593 49.8185 51.0593 51.0098 50.325 51.7442H50.324C49.9581 52.1124 49.4779 52.2959 48.9958 52.296C48.5137 52.296 48.0337 52.1124 47.6677 51.7442H47.6667L32.7556 36.8321C32.402 36.4784 32.2039 35.9998 32.2039 35.504V15.6212C32.204 14.5836 33.0462 13.7415 34.0837 13.7413Z" fill="#64D370" stroke="#E5E5E5" stroke-width="0.5"/>
</svg>
