<svg width="100" height="69" viewBox="0 0 100 69" fill="none" xmlns="http://www.w3.org/2000/svg">
<path d="M23.2842 0.0996094C30.8037 0.0996094 37.0786 5.50793 38.4434 12.6357L38.459 12.7168H63.0205C67.5597 12.7168 71.2509 16.408 71.251 20.9473V28.5723H84.4277C88.5179 28.5723 92.28 30.5973 94.4941 33.9873L99.5508 41.7236C99.7078 41.964 99.792 42.2471 99.792 42.5361V60.1846C99.792 61.0058 99.1278 61.6709 98.3066 61.6709H92.8848L92.8662 61.748C91.9745 65.5834 88.5346 68.4531 84.4326 68.4531C80.3306 68.4531 76.8916 65.5834 75.999 61.748L75.9805 61.6709H45.3164L45.2988 61.748C44.4072 65.5835 40.9682 68.4531 36.8643 68.4531C32.7615 68.4529 29.3223 65.5833 28.4307 61.748L28.4131 61.6709H14.2705C13.4502 61.6708 12.7852 61.0057 12.7852 60.1846V58.6191C12.7853 55.4144 14.7218 52.6601 17.4824 51.4424L17.542 51.416V44.2285H1.58594C0.764802 44.2285 0.0997226 43.5643 0.0996094 42.7432C0.0996094 41.922 0.764732 41.2568 1.58594 41.2568H17.542V37.8857H11.0986C10.2785 37.8857 9.61345 37.2223 9.61328 36.4014C9.61328 35.5802 10.2784 34.9151 11.0986 34.915H17.542V31.5439H1.58594C0.764848 31.5439 0.0997966 30.8796 0.0996094 30.0586C0.0996094 29.2374 0.764732 28.5723 1.58594 28.5723H15.0088L14.7344 28.3887C10.5839 25.6174 7.84286 20.8951 7.84277 15.542C7.84277 7.02804 14.7694 0.0997697 23.2842 0.0996094ZM36.8643 54.0938C33.7254 54.094 31.1699 56.6491 31.1699 59.7881C31.1699 62.9279 33.7254 65.4822 36.8643 65.4824C40.0042 65.4824 42.5586 62.9281 42.5586 59.7881C42.5586 56.649 40.0043 54.0938 36.8643 54.0938ZM84.4326 54.0938C81.2935 54.0938 78.7383 56.649 78.7383 59.7881C78.7383 62.9281 81.2936 65.4824 84.4326 65.4824C87.5726 65.4824 90.1269 62.928 90.127 59.7881C90.127 56.649 87.5726 54.0938 84.4326 54.0938ZM20.6328 53.7422C17.9511 53.7422 15.767 55.9197 15.7559 58.5986L15.7549 58.6982H28.2773L28.2891 58.6123C28.5348 56.8098 29.3361 55.1848 30.5166 53.9102L30.6719 53.7422H20.6328ZM43.2129 53.9102C44.3942 55.1848 45.1948 56.8097 45.4414 58.6123L45.4531 58.6982H68.2803V53.7422H43.0576L43.2129 53.9102ZM38.7148 15.7861C38.6319 21.0375 35.9212 25.6598 31.835 28.3887L31.5605 28.5723H41.2246C42.0449 28.5723 42.7109 29.2374 42.7109 30.0586C42.7107 30.8796 42.0448 31.5439 41.2246 31.5439H20.5127V34.915H31.7119C32.5322 34.915 33.1973 35.5801 33.1973 36.4014C33.1971 37.2224 32.5321 37.8857 31.7119 37.8857H20.5127V41.2568H23.7832C24.6044 41.2568 25.2695 41.922 25.2695 42.7432C25.2694 43.5643 24.6043 44.2285 23.7832 44.2285H20.5127V50.7725H20.6123C20.6236 50.7725 20.6338 50.7709 20.6367 50.7705H68.2803V20.9473C68.2802 18.0478 65.921 15.6875 63.0215 15.6875H38.7158L38.7148 15.7861ZM23.2842 3.07129C16.4081 3.07145 10.8135 8.66592 10.8135 15.542C10.8136 22.418 16.4082 28.0125 23.2842 28.0127C30.1612 28.0127 35.7547 22.418 35.7549 15.542C35.7549 8.66582 30.1613 3.07129 23.2842 3.07129ZM96.8203 42.9785L96.8047 42.9531L92.0078 35.6113C90.3432 33.064 87.5085 31.5439 84.4277 31.5439H71.251V58.6982H75.8447L75.8564 58.6123C76.4341 54.3903 80.0551 51.123 84.4326 51.123C88.8101 51.1231 92.4321 54.3904 93.0088 58.6123L93.0205 58.6982H96.8203V42.9785Z" fill="#64D370" stroke="#E5E5E5" stroke-width="0.2"/>
<path d="M23.7827 7.11938C24.604 7.11938 25.269 7.78363 25.269 8.60474V15.5422C25.269 15.8574 25.1682 16.1631 24.9839 16.4163L21.4429 21.2727C21.1522 21.672 20.7 21.884 20.2417 21.884C19.9383 21.884 19.6321 21.7909 19.3667 21.5969C18.7039 21.1141 18.5588 20.1857 19.0425 19.5227L22.2788 15.0833L22.2974 15.0569V8.60474C22.2974 7.78365 22.9625 7.11947 23.7827 7.11938Z" fill="#64D370" stroke="#E5E5E5" stroke-width="0.2"/>
<path d="M80.865 33.3287H83.8982C86.4716 33.3288 88.8634 34.7183 90.1384 36.9498L93.8416 43.4303C94.3155 44.2567 94.3146 45.2476 93.8337 46.0758C93.3526 46.9042 92.4953 47.3999 91.5369 47.4H80.865C80.0438 47.4 79.3787 46.7349 79.3787 45.9137V34.8151C79.3787 33.9939 80.0438 33.3287 80.865 33.3287ZM82.3513 44.4283H90.989L90.9041 44.2789L87.5583 38.4244C86.8102 37.1141 85.4082 36.3015 83.8982 36.3014H82.3513V44.4283Z" fill="#64D370" stroke="#E5E5E5" stroke-width="0.2"/>
</svg>
