<svg width="51" height="64" viewBox="0 0 51 64" fill="none" xmlns="http://www.w3.org/2000/svg">
<path d="M8.31882 52.4892L9.09842 52.6291C9.29014 52.6636 11.2205 52.9969 13.8772 52.9969C17.8528 52.9969 23.4537 52.2503 27.2819 48.6382C33.6685 42.6125 32.3804 31.2002 32.3224 30.7173L32.228 29.9309L31.4484 29.791C30.9698 29.7051 19.6515 27.7563 13.2649 33.7821C6.87839 39.8078 8.16649 51.2201 8.22445 51.7031L8.31882 52.4892ZM25.8124 47.0806C21.7496 50.9139 15.0331 51.005 11.6158 50.7596L21.2067 41.7105L28.3356 43.5603C27.7062 44.858 26.8842 46.0693 25.8124 47.0806ZM29.1439 41.5577L23.0457 39.9752L30.3098 33.1216C30.3376 35.1906 30.1733 38.453 29.1439 41.5577ZM28.751 31.6482L16.7578 42.9639L15.1691 34.9522C19.1887 31.5622 25.4059 31.4279 28.751 31.6482ZM13.3722 36.9007L14.9187 44.6991L10.2352 49.118C10.2119 46.0844 10.6154 40.721 13.3722 36.9007Z" fill="#64D370"/>
<path d="M43.0415 10.3499C43.0415 7.58572 41.9648 4.98667 40.0102 3.03203C38.0567 1.07682 35.4575 0 32.6915 0C31.8299 0 30.9735 0.106783 30.1463 0.317065L30.6742 2.39234C31.3289 2.22574 32.0077 2.14137 32.6915 2.14137C34.8852 2.14137 36.9463 2.9952 38.4956 4.54584C40.0461 6.09633 40.9001 8.15761 40.9001 10.3499V18.5114H30.6216V10.3504C30.6216 4.64334 25.9786 0.000428038 20.2716 0.000428038C14.5646 0.000428038 9.92167 4.64334 9.92167 10.3504V18.5114H0V58.2695C0 61.2214 2.40147 63.6229 5.35342 63.6229H45.1829C48.1348 63.6229 50.5363 61.2214 50.5363 58.2695V18.5114H43.0415V10.3499ZM12.063 10.3505C12.063 5.82423 15.7453 2.14194 20.2716 2.14194C24.7979 2.14194 28.4802 5.82423 28.4802 10.3505V18.5116H24.483V10.3501C24.483 9.34164 24.6633 8.35947 25.0189 7.43112L23.0191 6.66522C22.5696 7.83897 22.3416 9.07883 22.3416 10.3501V18.5116H12.063V10.3505ZM38.4019 58.2695C38.4019 60.0407 36.961 61.4815 35.1898 61.4815H5.35342C3.58222 61.4815 2.14137 60.0407 2.14137 58.2695V20.6528H38.4019V58.2695ZM45.1829 61.4815H41.3213L44.4691 55.9953L47.2047 60.7629C46.6524 61.2118 45.9486 61.4815 45.1829 61.4815ZM43.3984 20.6528V26.72H45.5397V20.6528H48.3949V58.2695C48.3949 58.3526 48.3908 58.4346 48.3845 58.5162L45.5397 53.5586V29.5751H43.3984V53.5586L40.5361 58.5473C40.5408 58.4552 40.5432 58.3627 40.5432 58.2695V20.6528H43.3984Z" fill="#64D370"/>
</svg>
