<svg width="62" height="62" viewBox="0 0 62 62" fill="none" xmlns="http://www.w3.org/2000/svg">
<path d="M41.8093 5.18481C43.6826 5.18481 45.8589 5.26623 47.7507 5.87329C47.9631 5.94144 48.1491 6.0738 48.283 6.2522C48.4169 6.43088 48.4929 6.6471 48.4988 6.87036C48.5046 7.09369 48.4407 7.3138 48.3162 7.49927C48.1917 7.68462 48.0122 7.82638 47.8035 7.90552C43.0739 9.70103 39.7694 14.5297 39.7693 19.6467C39.7693 26.4346 45.1604 31.9551 51.7849 31.9553C54.265 31.9553 56.2554 31.4038 58.0515 30.2209C58.2393 30.0973 58.4616 30.0354 58.6863 30.0442C58.9108 30.0531 59.127 30.1319 59.3044 30.2698C59.482 30.4077 59.6124 30.5982 59.6765 30.8137C59.7404 31.0291 59.7352 31.2595 59.6619 31.4719C57.7798 36.9227 53.7087 41.1284 48.5408 43.0891C49.7699 44.0537 50.7679 45.2816 51.4587 46.6838C52.1624 48.1121 52.5292 49.6825 52.532 51.2747C52.532 57.0597 47.7675 61.7659 41.9119 61.7659H9.81226C4.43532 61.7659 0.0595105 57.4442 0.0593262 52.1311C0.0561485 49.6135 1.05119 47.197 2.8269 45.4124L3.10522 45.1418C4.50391 43.8317 6.26004 42.9614 8.15503 42.6438C7.96475 41.8262 7.86847 40.9892 7.86792 40.1497C7.86813 33.893 13.0215 28.804 19.3552 28.804C20.6712 28.8043 21.9766 29.0317 23.2156 29.4739C22.8395 27.9263 22.6498 26.3392 22.6511 24.7463C22.6511 13.9611 31.2446 5.18495 41.8093 5.18481ZM19.3542 30.9573C14.2076 30.9575 10.0214 35.0822 10.0212 40.1497C10.0237 41.1971 10.2078 42.2367 10.5662 43.2209C10.6238 43.381 10.6432 43.5522 10.6218 43.7209C10.6005 43.8896 10.5397 44.0511 10.4441 44.1917C10.3484 44.3323 10.2202 44.4487 10.071 44.5305C9.92197 44.6122 9.7556 44.6573 9.58569 44.6624C7.7398 44.71 5.97802 45.4261 4.62476 46.6702L4.35913 46.926C2.98282 48.3083 2.21078 50.1805 2.21265 52.1311C2.21283 56.2551 5.62167 59.6116 9.81226 59.6116H41.9119C46.581 59.6116 50.3787 55.8706 50.3787 51.2747C50.3784 46.6788 46.5807 42.938 41.9119 42.9377C41.3479 42.9382 40.7853 42.9939 40.2322 43.1038C39.9532 43.1591 39.6634 43.102 39.4265 42.9446C39.1896 42.787 39.0244 42.5417 38.9675 42.2629C38.3402 39.1841 35.5654 36.9485 32.3689 36.9485C31.397 36.9484 30.4361 37.158 29.5525 37.5627C29.4184 37.6237 29.273 37.6559 29.1257 37.6584C28.9783 37.661 28.8314 37.6338 28.6951 37.5774C28.5589 37.521 28.4353 37.4372 28.3328 37.3313C28.2303 37.2254 28.1513 37.0991 28.0994 36.9612C26.7482 33.3711 23.2333 30.9573 19.3542 30.9573ZM41.8093 7.33813C32.4345 7.33827 24.8054 15.1467 24.8054 24.7463C24.8017 26.8195 25.1621 28.8772 25.8708 30.8254C27.499 31.9335 28.8123 33.4438 29.6843 35.2092C30.5525 34.9341 31.458 34.7944 32.3689 34.7952C36.234 34.7952 39.6335 37.2837 40.8123 40.842C42.5993 40.6574 44.4044 40.9242 46.0613 41.6194C50.5362 40.4662 54.2706 37.4806 56.4792 33.3821C55.0594 33.8725 53.5191 34.1096 51.7849 34.1096C43.9707 34.1094 37.615 27.6202 37.615 19.6467C37.6151 14.7656 40.1868 10.1084 44.1384 7.4104C43.3479 7.35285 42.5548 7.33813 41.8093 7.33813Z" fill="#64D370" stroke="#64D370" stroke-width="0.1"/>
<path d="M53.5093 14.4272C53.7949 14.4272 54.069 14.5407 54.271 14.7426C54.4729 14.9446 54.5864 15.2188 54.5864 15.5043V17.0903L56.2495 16.5366L56.2505 16.5356C56.5204 16.4487 56.8139 16.472 57.0669 16.6C57.32 16.7281 57.5123 16.951 57.6021 17.2202C57.6918 17.4893 57.6719 17.7832 57.5464 18.0375C57.4365 18.2601 57.2534 18.4368 57.0298 18.5395L56.9312 18.5795L55.187 19.1596L56.4595 21.0678L56.5132 21.1596C56.6281 21.378 56.6651 21.6304 56.6157 21.8745C56.5592 22.1534 56.3945 22.3992 56.1577 22.5571C55.9209 22.7149 55.6313 22.7722 55.3521 22.7172C55.0728 22.6622 54.8266 22.499 54.6675 22.2631L53.5093 20.5258L52.3511 22.2612L52.3521 22.2621C52.274 22.3806 52.1727 22.4825 52.0552 22.562C51.9376 22.6413 51.8055 22.6968 51.6665 22.725C51.5274 22.7532 51.3839 22.7544 51.2446 22.727C51.1054 22.6996 50.973 22.6446 50.855 22.5659C50.737 22.4872 50.6359 22.3859 50.5571 22.268C50.4784 22.15 50.4235 22.0175 50.396 21.8784C50.3685 21.7391 50.3689 21.5956 50.397 21.4565C50.4251 21.3176 50.4799 21.1853 50.5591 21.0678L51.8306 19.1596L50.0884 18.5795C49.953 18.5359 49.8274 18.4659 49.7192 18.3735C49.611 18.281 49.5228 18.1674 49.4585 18.0405C49.3943 17.9135 49.3556 17.7751 49.3452 17.6332C49.3348 17.4915 49.3521 17.3491 49.397 17.2143C49.4419 17.0794 49.5136 16.9543 49.6069 16.8471C49.7003 16.7399 49.8145 16.6523 49.9419 16.5893C50.0695 16.5263 50.209 16.489 50.3511 16.4799C50.4927 16.471 50.6348 16.4895 50.769 16.5356L52.4321 17.0903V15.5043C52.4321 15.2188 52.5458 14.9446 52.7476 14.7426C52.9495 14.5407 53.2237 14.4272 53.5093 14.4272Z" fill="#64D370" stroke="#64D370" stroke-width="0.1"/>
<path d="M4.21729 23.6693C4.5029 23.6693 4.77704 23.7828 4.979 23.9847C5.18086 24.1867 5.29443 24.4609 5.29443 24.7465V26.3324L6.95752 25.7787L6.9585 25.7777C7.22843 25.6908 7.52187 25.7141 7.7749 25.8422C8.02803 25.9703 8.22028 26.1932 8.31006 26.4623C8.39978 26.7314 8.37992 27.0253 8.25439 27.2797C8.14451 27.5022 7.96139 27.679 7.73779 27.7816L7.63916 27.8217L5.89502 28.4017L7.16748 30.3099C7.24671 30.4275 7.30148 30.5597 7.32959 30.6986C7.3577 30.8377 7.35802 30.9813 7.33057 31.1205C7.30311 31.2597 7.24822 31.3921 7.16943 31.5101C7.09066 31.6281 6.98957 31.7293 6.87158 31.808C6.75351 31.8867 6.62118 31.9418 6.48193 31.9691C6.3427 31.9965 6.19913 31.9954 6.06006 31.9672C5.92116 31.939 5.78886 31.8844 5.67139 31.8051C5.55396 31.7257 5.45353 31.6235 5.37549 31.5052L4.21729 29.7679L3.05908 31.5033L3.06006 31.5043C2.982 31.6227 2.88072 31.7247 2.76318 31.8041C2.64563 31.8835 2.51354 31.939 2.37451 31.9672C2.23543 31.9954 2.09188 31.9965 1.95264 31.9691C1.81343 31.9417 1.68103 31.8867 1.56299 31.808C1.44502 31.7293 1.3439 31.628 1.26514 31.5101C1.18637 31.3922 1.13146 31.2596 1.104 31.1205C1.07655 30.9813 1.07688 30.8377 1.10498 30.6986C1.13307 30.5597 1.18789 30.4275 1.26709 30.3099L2.53857 28.4017L0.796387 27.8217C0.660986 27.778 0.535412 27.708 0.427246 27.6156C0.319054 27.5231 0.230768 27.4096 0.166504 27.2826C0.102264 27.1556 0.063652 27.0173 0.0532227 26.8754C0.0428239 26.7337 0.0601118 26.5912 0.10498 26.4564C0.149947 26.3215 0.22156 26.1964 0.314941 26.0892C0.408355 25.9821 0.522464 25.8944 0.649902 25.8314C0.777506 25.7684 0.917055 25.7311 1.05908 25.722C1.20072 25.7131 1.34283 25.7316 1.47705 25.7777L3.14014 26.3324V24.7465C3.14014 24.461 3.25376 24.1867 3.45557 23.9847C3.65751 23.7828 3.9317 23.6693 4.21729 23.6693Z" fill="#64D370" stroke="#64D370" stroke-width="0.1"/>
<path d="M10.3792 2.10394C10.6648 2.10394 10.9389 2.21742 11.1409 2.41937C11.3428 2.62133 11.4563 2.89547 11.4563 3.18109V4.76703L13.1194 4.21332L13.1204 4.21234C13.3903 4.12535 13.6837 4.14881 13.9368 4.27679C14.19 4.40493 14.3831 4.62772 14.4729 4.89691C14.5626 5.16608 14.5419 5.45988 14.4163 5.71429C14.3063 5.93692 14.1234 6.11363 13.8997 6.21625L13.801 6.25629L12.0579 6.83636L13.3293 8.74457C13.4859 8.98212 13.542 9.27236 13.4856 9.55121C13.4291 9.83016 13.2644 10.0759 13.0276 10.2338C12.7908 10.3916 12.5011 10.449 12.2219 10.394C11.9428 10.3389 11.6965 10.1758 11.5374 9.93988L10.3792 8.2016L9.22192 9.93988C9.06357 10.1773 8.81718 10.3418 8.53735 10.3979C8.25731 10.4539 7.96638 10.3961 7.72876 10.2377C7.49113 10.0793 7.32577 9.83323 7.26978 9.55316C7.21384 9.27314 7.27152 8.98216 7.42993 8.74457L8.70044 6.83636L6.95825 6.25629C6.68993 6.16389 6.46867 5.96874 6.34302 5.71429C6.21738 5.45986 6.19665 5.16611 6.28638 4.89691C6.37613 4.62769 6.56931 4.40494 6.82251 4.27679C7.07561 4.14879 7.36896 4.12532 7.63892 4.21234H7.63989L9.30298 4.76703V3.18109C9.30298 2.89547 9.41645 2.62133 9.61841 2.41937C9.82026 2.21755 10.0937 2.10407 10.3792 2.10394Z" fill="#64D370" stroke="#64D370" stroke-width="0.1"/>
<path d="M58.6455 4.1579C59.2401 4.15812 59.7217 4.64042 59.7217 5.23505C59.7215 5.82948 59.2399 6.31099 58.6455 6.31122C58.0509 6.31122 57.5686 5.82962 57.5684 5.23505C57.5684 4.64028 58.0507 4.1579 58.6455 4.1579Z" fill="#64D370" stroke="#64D370" stroke-width="0.1"/>
<path d="M16.5398 19.5618C17.1344 19.5621 17.616 20.0443 17.616 20.639C17.6157 21.2334 17.1342 21.7149 16.5398 21.7151C15.9452 21.7151 15.4629 21.2336 15.4626 20.639C15.4626 20.0442 15.945 19.5618 16.5398 19.5618Z" fill="#64D370" stroke="#64D370" stroke-width="0.1"/>
<path d="M31.9448 0.0501709C32.5394 0.0503977 33.021 0.532691 33.021 1.12732C33.0208 1.72176 32.5393 2.20326 31.9448 2.20349C31.3502 2.20349 30.8679 1.7219 30.8677 1.12732C30.8677 0.532551 31.3501 0.0501709 31.9448 0.0501709Z" fill="#64D370" stroke="#64D370" stroke-width="0.1"/>
<path d="M60.6992 40.1001C61.2938 40.1003 61.7754 40.5826 61.7754 41.1772C61.7752 41.7717 61.2937 42.2532 60.6992 42.2534C60.1046 42.2534 59.6223 41.7718 59.6221 41.1772C59.6221 40.5825 60.1045 40.1001 60.6992 40.1001Z" fill="#64D370" stroke="#64D370" stroke-width="0.1"/>
</svg>
