<svg width="67" height="67" viewBox="0 0 67 67" fill="none" xmlns="http://www.w3.org/2000/svg">
<path d="M60.0145 45.27L45.0033 54.1636L39.2855 50.5504H46.4743C47.5746 50.5504 48.6299 50.1132 49.4079 49.3352C50.186 48.5571 50.6231 47.5019 50.6231 46.4015C50.6231 45.3012 50.186 44.2459 49.4079 43.4679C48.6299 42.6898 47.5746 42.2527 46.4743 42.2527H34.1258C32.7056 42.2444 31.2962 42.5002 29.9695 43.007L20.3668 47.3671V46.4015C20.3668 46.1014 20.2476 45.8136 20.0354 45.6014C19.8232 45.3892 19.5354 45.27 19.2353 45.27H10.9377C10.6376 45.27 10.3498 45.3892 10.1376 45.6014C9.92536 45.8136 9.80615 46.1014 9.80615 46.4015V65.2598C9.80615 65.5599 9.92536 65.8477 10.1376 66.0599C10.3498 66.2721 10.6376 66.3913 10.9377 66.3913H19.2353C19.5354 66.3913 19.8232 66.2721 20.0354 66.0599C20.2476 65.8477 20.3668 65.5599 20.3668 65.2598V64.1283H43.819C45.3033 64.1308 46.7503 63.6634 47.9527 62.7932L63.9899 51.3047C64.6603 50.7267 65.0974 49.9245 65.2196 49.0478C65.3417 48.1711 65.1405 47.2799 64.6536 46.5408C64.1666 45.8016 63.4272 45.2649 62.5735 45.0311C61.7198 44.7972 60.8102 44.8822 60.0145 45.27ZM18.1038 64.1283H12.0691V47.533H18.1038V64.1283ZM62.6773 49.5018L46.6327 60.9601C45.8136 61.5509 44.8289 61.8677 43.819 61.8653H20.3668V49.8488L30.8369 45.1192C31.8869 44.7177 33.0018 44.5131 34.1258 44.5157H46.4743C46.9744 44.5157 47.4541 44.7144 47.8077 45.068C48.1614 45.4217 48.3601 45.9014 48.3601 46.4015C48.3601 46.9017 48.1614 47.3814 47.8077 47.735C47.4541 48.0887 46.9744 48.2874 46.4743 48.2874H35.378C35.1325 48.2871 34.8935 48.3667 34.6971 48.5141C34.5008 48.6616 34.3577 48.869 34.2896 49.1049C34.2214 49.3408 34.2319 49.5925 34.3194 49.822C34.4069 50.0514 34.5666 50.2462 34.7746 50.3769L44.3772 56.4115C44.5554 56.5209 44.7603 56.5788 44.9694 56.5788C45.1784 56.5788 45.3834 56.5209 45.5615 56.4115L61.1762 47.1408C61.482 46.9616 61.845 46.9069 62.19 46.988C62.5351 47.0692 62.8357 47.2799 63.0296 47.5766C63.2235 47.8733 63.2958 48.2332 63.2317 48.5817C63.1675 48.9303 62.9717 49.2409 62.6849 49.449L62.6773 49.5018Z" fill="#64D370"/>
<path d="M65.2498 36.2179H62.6096C62.419 29.2839 59.7561 22.6465 55.1014 17.5035C50.4467 12.3605 44.1069 9.05085 37.2263 8.17178C37.8573 7.46627 38.2706 6.59322 38.4163 5.658C38.562 4.72278 38.4339 3.76538 38.0475 2.90136C37.661 2.03733 37.0328 1.30362 36.2386 0.788787C35.4443 0.273952 34.5181 0 33.5716 0C32.6251 0 31.6988 0.273952 30.9046 0.788787C30.1103 1.30362 29.4821 2.03733 29.0957 2.90136C28.7092 3.76538 28.5811 4.72278 28.7269 5.658C28.8726 6.59322 29.2859 7.46627 29.9168 8.17178C23.0342 9.04771 16.6918 12.3562 12.0353 17.4997C7.37879 22.6431 4.71531 29.2823 4.52599 36.2179H1.1315C0.831407 36.2179 0.543605 36.3371 0.331408 36.5493C0.119211 36.7615 0 37.0493 0 37.3494C0 37.6495 0.119211 37.9373 0.331408 38.1495C0.543605 38.3616 0.831407 38.4809 1.1315 38.4809H65.2498C65.5499 38.4809 65.8377 38.3616 66.0499 38.1495C66.262 37.9373 66.3813 37.6495 66.3813 37.3494C66.3813 37.0493 66.262 36.7615 66.0499 36.5493C65.8377 36.3371 65.5499 36.2179 65.2498 36.2179ZM33.5678 2.2729C34.09 2.2729 34.6004 2.42774 35.0346 2.71785C35.4688 3.00795 35.8072 3.42029 36.007 3.90272C36.2068 4.38514 36.2591 4.91599 36.1572 5.42813C36.0554 5.94027 35.8039 6.41071 35.4347 6.77994C35.0654 7.14917 34.595 7.40062 34.0829 7.5025C33.5707 7.60437 33.0399 7.55208 32.5574 7.35226C32.075 7.15243 31.6627 6.81403 31.3726 6.37986C31.0825 5.94569 30.9276 5.43524 30.9276 4.91306C30.9276 4.21285 31.2058 3.54131 31.7009 3.04618C32.196 2.55106 32.8676 2.2729 33.5678 2.2729ZM33.5678 10.1934C40.5395 10.1963 47.2356 12.9158 52.2353 17.7746C57.2349 22.6334 60.1445 29.2491 60.3466 36.2179H6.78899C6.9911 29.2491 9.90069 22.6334 14.9003 17.7746C19.9 12.9158 26.5961 10.1963 33.5678 10.1934Z" fill="#64D370"/>
<path d="M27.4859 15.5566C24.3775 16.4367 21.4985 17.984 19.0492 20.0906C16.6 22.1972 14.6396 24.8124 13.3044 27.7541C13.2293 27.8912 13.1834 28.0424 13.1697 28.198C13.1559 28.3537 13.1745 28.5106 13.2244 28.6587C13.2743 28.8068 13.3543 28.943 13.4594 29.0587C13.5645 29.1743 13.6924 29.267 13.8351 29.3307C13.9778 29.3945 14.1322 29.428 14.2885 29.4292C14.4448 29.4303 14.5996 29.3991 14.7432 29.3374C14.8868 29.2758 15.0161 29.185 15.1229 29.0709C15.2297 28.9568 15.3117 28.8218 15.3637 28.6744C16.5658 26.0355 18.3282 23.69 20.5284 21.8011C22.7286 19.9122 25.3139 18.5252 28.1044 17.7366C28.2475 17.696 28.3813 17.6276 28.498 17.5353C28.6147 17.443 28.7121 17.3286 28.7846 17.1987C28.8571 17.0687 28.9033 16.9258 28.9205 16.778C28.9378 16.6302 28.9258 16.4805 28.8851 16.3373C28.8445 16.1942 28.7761 16.0604 28.6838 15.9437C28.5915 15.827 28.4771 15.7296 28.3472 15.6571C28.2173 15.5846 28.0743 15.5384 27.9265 15.5212C27.7787 15.5039 27.629 15.516 27.4859 15.5566Z" fill="#64D370"/>
</svg>
