<svg width="69" height="68" viewBox="0 0 69 68" fill="none" xmlns="http://www.w3.org/2000/svg">
<path d="M60.5999 12.1684H66.4124C67.1198 12.1685 67.6936 12.7422 67.6936 13.4496C67.6936 14.1571 67.1198 14.7308 66.4124 14.7309H63.219L63.2688 14.808C67.298 20.9693 69.2281 28.3218 68.7239 35.7377C68.1662 43.9371 64.655 51.657 58.8372 57.475C52.3216 63.9904 43.6344 67.4536 34.7805 67.4536C30.5044 67.4535 26.1899 66.6459 22.0608 64.9848C21.4044 64.7208 21.0857 63.9742 21.3499 63.3178C21.614 62.6614 22.3604 62.344 23.0168 62.6078C34.7409 67.3245 48.0898 64.5984 57.0247 55.6635C67.1564 45.5318 69.0325 29.7252 61.9739 17.5854L61.8811 17.4252V19.2621C61.8811 19.9696 61.3073 20.5434 60.5999 20.5434C59.8923 20.5434 59.3186 19.9696 59.3186 19.2621V13.4496C59.3186 12.7421 59.8923 12.1684 60.5999 12.1684Z" fill="#64D370" stroke="#E5E5E5" stroke-width="0.1"/>
<path d="M27.6357 0.666016C34.1652 -0.586397 40.8576 0.0789606 46.9893 2.59082C47.6439 2.85895 47.9576 3.60793 47.6895 4.2627C47.4211 4.91694 46.6733 5.23017 46.0186 4.96191C34.2451 0.138851 20.8235 2.8357 11.8271 11.832C1.61238 22.047 -0.209423 38.0307 7.05566 50.209L7.14941 50.3652V48.2891C7.14941 47.5817 7.72236 47.0081 8.42969 47.0078C9.13723 47.0078 9.71107 47.5815 9.71094 48.2891V54.2236C9.71075 54.931 9.13711 55.5039 8.42969 55.5039H2.49609C1.78867 55.5039 1.21503 54.931 1.21484 54.2236C1.21484 53.5161 1.78856 52.9424 2.49609 52.9424H5.75195L5.7002 52.8643C1.59176 46.667 -0.380231 39.245 0.128906 31.7578C0.686593 23.5585 4.19772 15.8387 10.0156 10.0205C14.8517 5.18442 20.9448 1.94946 27.6357 0.666016Z" fill="#64D370" stroke="#E5E5E5" stroke-width="0.1"/>
<path d="M31.2182 28.6085C31.4282 28.5047 31.6712 28.4884 31.8931 28.5634C32.1148 28.6385 32.2979 28.7983 32.4017 29.008L36.8008 37.9025C36.9045 38.1123 36.9204 38.3548 36.8455 38.5766C36.7705 38.7985 36.61 38.9817 36.4 39.0856C36.1901 39.1894 35.9478 39.2053 35.726 39.1303C35.5041 39.0553 35.3212 38.8955 35.2173 38.6857L30.8182 29.7912C30.7144 29.5813 30.6985 29.339 30.7736 29.1172C30.8486 28.8953 31.0082 28.7124 31.2182 28.6085Z" fill="#64D370" stroke="#64D370" stroke-width="0.2"/>
<path d="M34.9633 26.7567C35.1733 26.6528 35.4163 26.6365 35.6382 26.7116C35.8599 26.7867 36.0431 26.9464 36.1469 27.1562L40.546 36.0506C40.6496 36.2604 40.6655 36.503 40.5906 36.7247C40.5156 36.9466 40.3551 37.1299 40.1451 37.2337C39.9352 37.3375 39.6929 37.3534 39.4711 37.2784C39.2492 37.2034 39.0663 37.0436 38.9625 36.8338L34.5634 27.9394C34.4595 27.7294 34.4436 27.4872 34.5187 27.2653C34.5937 27.0434 34.7534 26.8605 34.9633 26.7567Z" fill="#64D370" stroke="#64D370" stroke-width="0.2"/>
<path d="M17.8995 24.8762C17.2812 25.9254 16.7686 27.0335 16.371 28.1849L16.3697 28.1844C14.3441 34.1755 17.8806 38.7233 19.6933 40.5567L22.1142 33.3978L17.8995 24.8762ZM28.6539 14.0477C26.1692 15.7481 21.9906 18.9688 19.025 23.1648L22.9132 31.0263L28.6539 14.0477ZM49.58 53.1395C49.6837 53.3494 49.6997 53.5917 49.6247 53.8135C49.5497 54.0353 49.3899 54.2183 49.1801 54.3221C48.9701 54.426 48.7271 54.4423 48.5051 54.3673C48.2834 54.2922 48.1004 54.1324 47.9965 53.9226L44.7205 47.2989C43.928 45.7581 43.6439 44.0058 43.9085 42.2934L43.9085 42.2912L44.2101 40.6037C44.3904 39.347 44.2002 38.0668 43.6649 36.9196L38.3077 26.088C38.2039 25.8781 38.1876 25.635 38.2626 25.4131C38.3377 25.1912 38.4981 25.0079 38.7081 24.904C38.9181 24.8002 39.1611 24.7839 39.3831 24.8589C39.6049 24.934 39.7883 25.0945 39.8921 25.3044L42.2824 30.1372C46.5243 26.0305 49.2867 20.584 50.3019 18.4116C47.5887 17.8004 39.8481 16.3923 33.2318 18.2812C33.716 20.3302 34.0407 22.4135 34.2014 24.5128L34.2018 24.5137C34.2188 24.7473 34.1429 24.9784 33.9898 25.1557C33.8367 25.333 33.6186 25.442 33.3849 25.4592C33.1515 25.4762 32.9211 25.3997 32.7439 25.2468C32.5665 25.0936 32.4566 24.876 32.4395 24.6423C32.1427 21.2243 31.4354 17.8551 30.3364 14.6057L21.3666 41.1095C23.3341 40.8137 27.0886 39.8556 29.6096 36.7722L27.0735 31.6444C26.9696 31.4344 26.9533 31.1914 27.0284 30.9694C27.1034 30.7475 27.2639 30.5642 27.4739 30.4604C27.6837 30.3567 27.9262 30.3408 28.1479 30.4157C28.3699 30.4908 28.5531 30.6512 28.657 30.8612L33.9016 41.4652C34.482 42.689 35.4297 43.7011 36.6121 44.3616L38.1355 45.1465L38.1381 45.1473C39.6598 45.9761 40.8802 47.2655 41.6235 48.8306L44.8995 55.4544C45.0032 55.6642 45.0191 55.9068 44.9442 56.1285C44.8692 56.3504 44.7087 56.5336 44.4987 56.6375C44.2887 56.7414 44.0457 56.7577 43.8238 56.6826C43.6021 56.6076 43.419 56.4477 43.3152 56.238L40.0382 49.6125C39.4566 48.3959 38.5122 47.3893 37.3347 46.7323L37.3342 46.7314L35.8039 45.9303L35.8026 45.9299C34.2806 45.101 33.0601 43.8113 32.3168 42.2458L30.4586 38.4888C29.3493 39.675 28.0333 40.6495 26.5719 41.36C24.5522 42.3477 22.3522 42.9127 20.1067 43.0204L20.0612 43.0429L20.0328 43.0406L19.9538 43.0329L19.9459 43.0324L19.9385 43.0306L19.8128 42.999L19.7993 42.9959L19.7989 42.9951L19.7283 42.9668L19.723 42.965C19.6713 42.9416 19.6216 42.9132 19.5753 42.8801L19.5549 42.8652L19.5367 42.8284C19.2441 42.5906 17.362 40.9852 15.8795 38.388C14.3589 35.724 13.2556 32.0106 14.7259 27.6628C16.431 22.609 20.4804 18.4034 23.5646 15.7695C25.5372 14.0719 27.6548 12.5502 29.8925 11.2213L29.8991 11.217L29.8995 11.2178L30.0982 11.1196L30.1057 11.117C30.1679 11.0971 30.2321 11.085 30.2971 11.0789L30.3321 11.0616L30.3549 11.0613C30.3912 11.0609 30.4275 11.0633 30.4636 11.0674L30.5709 11.0862L30.5744 11.0867C30.6514 11.1084 30.7251 11.1414 30.7932 11.1833L30.8172 11.1987L30.8328 11.2302C30.858 11.2476 30.8828 11.2655 30.9059 11.2855L30.9929 11.3711L30.9985 11.3781L31.0029 11.3846L31.112 11.6052C31.7706 13.2233 32.3256 14.8817 32.7762 16.5694C40.2897 14.4451 48.8461 16.2402 51.185 16.7982L51.7862 16.9475L51.7958 16.9493L51.7949 16.9497L51.8668 16.9741L51.8743 16.978C51.907 16.9963 51.9383 17.018 51.9683 17.0405L52.0441 17.0858L52.1159 17.1385L52.1216 17.1433L52.1207 17.1438C52.1585 17.1801 52.1928 17.2204 52.2233 17.263L52.2784 17.3327C52.3282 17.4054 52.3623 17.4881 52.3778 17.5755L52.3778 17.5777C52.3875 17.6402 52.3883 17.7033 52.384 17.7664L52.3853 17.7668C52.3874 17.8222 52.383 17.8775 52.3745 17.9323C52.3747 17.9735 52.3729 18.015 52.367 18.0559L52.3652 18.0676L52.3608 18.0785L52.3374 18.137L52.3361 18.1365C52.2006 18.4779 49.0105 26.3137 43.1011 31.7925L45.135 35.9049L45.2787 36.1977C45.9686 37.6707 46.2061 39.3182 45.957 40.9305L45.957 40.9327L45.9561 40.9331L45.6553 42.6202C45.464 43.9539 45.69 45.3141 46.3031 46.5139L49.58 53.1395Z" fill="#64D370" stroke="#64D370" stroke-width="0.2"/>
</svg>
